<svg xmlns="http://www.w3.org/2000/svg" style="display: none;">
  <symbol id="icon-arrow" viewBox="0 0 17 10" stroke="none">
    <path d="M16.15 5.78a.61.61 0 0 0 0-.87l-3.88-3.88a.61.61 0 0 0-.87.86l3.45 3.45L11.4 8.8a.61.61 0 0 0 .87.86l3.88-3.88ZM.82 5.34v.61h14.9V4.73H.82v.61Z" />
  </symbol>
  <symbol id="icon-burger" viewBox="0 0 18 12" stroke="none">
    <path
      d="M1 12a1 1 0 0 1-.7-.3A1 1 0 0 1 0 11c0-.3.1-.5.3-.7.2-.2.4-.3.7-.3h16c.3 0 .5.1.7.3.2.2.3.4.3.7a1 1 0 0 1-1 1H1Zm0-5a1 1 0 0 1-.7-.3A1 1 0 0 1 0 6c0-.3.1-.5.3-.7C.5 5 .7 5 1 5h16c.3 0 .5.1.7.3.2.2.3.4.3.7a1 1 0 0 1-1 1H1Zm0-5a1 1 0 0 1-.7-.3A1 1 0 0 1 0 1C0 .7.1.5.3.3.5 0 .7 0 1 0h16c.3 0 .5.1.7.3.2.2.3.4.3.7a1 1 0 0 1-1 1H1Z" />
  </symbol>
  <symbol id="icon-calendar" viewBox="0 0 12 13" stroke="none">
    <path
      d="M1 10.17c0 .85.65 1.5 1.5 1.5h7c.85 0 1.5-.65 1.5-1.5v-4H1v4Zm8.5-7.5h-1v-.5c0-.3-.2-.5-.5-.5s-.5.2-.5.5v.5h-3v-.5c0-.3-.2-.5-.5-.5s-.5.2-.5.5v.5h-1c-.85 0-1.5.65-1.5 1.5v1h10v-1c0-.85-.65-1.5-1.5-1.5Z" />
  </symbol>
  <symbol id="icon-catalog" viewBox="0 0 16 16" stroke="none">
    <path
      d="M2.5 7a.5.5 0 0 1-.5-.5v-4a.5.5 0 0 1 .5-.5h4a.5.5 0 0 1 .5.5v4a.5.5 0 0 1-.5.5h-4Zm7 0a.5.5 0 0 1-.5-.5v-4a.5.5 0 0 1 .5-.5h4a.5.5 0 0 1 .5.5v4a.5.5 0 0 1-.5.5h-4Zm-7 7a.5.5 0 0 1-.5-.5v-4a.5.5 0 0 1 .5-.5h4a.5.5 0 0 1 .5.5v4a.5.5 0 0 1-.5.5h-4Zm7 0a.5.5 0 0 1-.5-.5v-4a.5.5 0 0 1 .5-.5h4a.5.5 0 0 1 .5.5v4a.5.5 0 0 1-.5.5h-4Z" />
  </symbol>
  <symbol id="icon-check-fill" viewBox="0 0 24 24" stroke="none">
    <path
      d="M21.674 10.14c-.353-.37-.719-.75-.857-1.085-.127-.307-.134-.815-.142-1.307-.014-.915-.03-1.952-.75-2.673-.72-.72-1.758-.736-2.673-.75-.492-.008-1-.015-1.307-.143-.333-.137-.715-.503-1.084-.856C14.214 2.704 13.479 2 12.5 2c-.979 0-1.713.704-2.36 1.326-.37.353-.75.719-1.085.857-.305.127-.815.135-1.307.142-.915.014-1.952.03-2.673.75-.72.72-.731 1.758-.75 2.673-.008.492-.015 1-.143 1.307-.137.333-.503.715-.856 1.084C2.704 10.786 2 11.521 2 12.5c0 .979.704 1.713 1.326 2.36.353.37.719.75.857 1.085.127.307.135.815.142 1.307.014.915.03 1.952.75 2.673.72.72 1.758.736 2.673.75.492.008 1 .015 1.307.142.333.138.715.504 1.084.857.647.622 1.382 1.326 2.361 1.326.979 0 1.713-.704 2.36-1.326.37-.353.75-.719 1.085-.857.307-.127.815-.134 1.307-.142.915-.014 1.952-.03 2.673-.75.72-.72.736-1.758.75-2.673.008-.492.015-1 .142-1.307.138-.333.504-.715.857-1.084C22.296 14.214 23 13.479 23 12.5c0-.979-.704-1.713-1.326-2.36Zm-4.893.64-5.25 5.25a.747.747 0 0 1-1.062 0l-2.25-2.25a.751.751 0 0 1 1.062-1.06L11 14.44l4.72-4.72a.751.751 0 0 1 1.06 1.06Z" />
  </symbol>
  <symbol id="icon-clock" viewBox="0 0 17 17" stroke="none">
    <path d="M8.5 1.42a7.08 7.08 0 1 1 0 14.16 7.08 7.08 0 0 1 0-14.16Zm0 2.83a.7.7 0 0 0-.7.7V8.5c0 .19.07.37.2.5l2.12 2.13a.7.7 0 0 0 1-1L9.22 8.2V4.96a.7.7 0 0 0-.71-.71Z" />
  </symbol>
  <symbol id="icon-close" viewBox="0 0 24 25" stroke="none">
    <path fill-rule="evenodd" d="M5.47 5.97a.75.75 0 0 1 1.06 0l12 12a.75.75 0 1 1-1.06 1.06l-12-12a.75.75 0 0 1 0-1.06Z" clip-rule="evenodd" />
    <path fill-rule="evenodd" d="M18.53 5.97a.75.75 0 0 1 0 1.06l-12 12a.75.75 0 0 1-1.06-1.06l12-12a.75.75 0 0 1 1.06 0Z" clip-rule="evenodd" />
  </symbol>
  <symbol id="icon-document" viewBox="0 0 30 30" stroke="none">
    <path fill-rule="evenodd"
      d="M17.81 3.13a.31.31 0 0 0-.31-.32H8.75a3.44 3.44 0 0 0-3.44 3.44v17.5a3.44 3.44 0 0 0 3.44 3.44h12.5a3.44 3.44 0 0 0 3.44-3.44V11.43a.31.31 0 0 0-.32-.3h-5.62a.94.94 0 0 1-.94-.95V3.13Zm.94 12.18a.94.94 0 0 1 0 1.88h-7.5a.94.94 0 0 1 0-1.88h7.5Zm0 5a.94.94 0 0 1 0 1.88h-7.5a.94.94 0 0 1 0-1.88h7.5Z"
      clip-rule="evenodd" />
    <path d="M19.69 3.53c0-.23.24-.38.42-.23.15.12.28.26.4.43l3.77 5.24c.08.12-.01.28-.16.28H20a.31.31 0 0 1-.31-.32v-5.4Z" />
  </symbol>
  <symbol id="icon-down" viewBox="0 0 6 5" stroke="none">
    <path d="M3 4.5 5.6.75H.4L3 4.5Z" />
  </symbol>
  <symbol id="icon-handshake" viewBox="0 0 24 24" stroke="none">
    <path
      d="M21 9s0 .85-.349 1.969l-3.886-3.886a1.125 1.125 0 0 0-.795-.33h-3.453c-.251 0-.495.085-.693.24L10.46 8.059a.904.904 0 0 1-1.455-.823.907.907 0 0 1 .34-.604L13.997 3H15a6 6 0 0 1 6 6ZM5.538 11.498a.808.808 0 0 0-1.144 0L3.236 12.66a.813.813 0 0 0 .572 1.385.808.808 0 0 0 .572-.238l1.158-1.162a.812.812 0 0 0 0-1.147m1.197 1.567a.807.807 0 0 1 1.381.573.813.813 0 0 1-.236.574l-1.16 1.16a.806.806 0 0 1-1.144 0 .813.813 0 0 1 0-1.147l1.159-1.16Zm3.088 1.948a.808.808 0 0 0-1.144 0l-1.158 1.16a.812.812 0 0 0 .882 1.324c.098-.04.187-.1.262-.176l1.158-1.162a.813.813 0 0 0 0-1.146Zm1.942 1.946a.807.807 0 0 0-1.144 0l-1.158 1.162a.813.813 0 0 0 .572 1.384.807.807 0 0 0 .572-.238l1.158-1.161a.813.813 0 0 0 0-1.147m-.486-13.74a5.625 5.625 0 0 0-1.213-.217L10 3H9.75a6 6 0 0 0-6 6v1.565a1.928 1.928 0 0 1 2.583.136c.295.296.475.665.54 1.048a1.936 1.936 0 0 1 2.366 1.9 1.936 1.936 0 0 1 1.944 1.947 1.927 1.927 0 0 1 1.375.567 1.942 1.942 0 0 1 0 2.74l-.169.17.956.947a.81.81 0 0 0 1.136 0 .783.783 0 0 0 .002-1.113.565.565 0 0 1 .795-.803.81.81 0 0 0 1.136 0 .782.782 0 0 0 .001-1.114.566.566 0 0 1 .796-.803.81.81 0 0 0 1.136-.001.8.8 0 0 0 .012-1.129l-.002-.002-1.69-1.69a.562.562 0 0 1 .795-.795l1.977 1.975c.395.392 1.047.396 1.39.056.341-.338.338-.98-.053-1.37l-.002-.001-4.977-4.976h-3.15l-1.261.987a2.404 2.404 0 1 1-2.963-3.79l2.856-2.232Z" />
  </symbol>
  <symbol id="icon-info" viewBox="0 0 24 24" stroke="none">
    <path
      d="M12 17c.28 0 .52-.1.71-.29.2-.19.3-.43.29-.71v-4c0-.28-.1-.52-.29-.71A.97.97 0 0 0 12 11c-.28 0-.52.1-.71.29-.2.2-.29.43-.29.71v4c0 .28.1.52.29.71.19.2.43.3.71.29Zm0-8c.28 0 .52-.1.71-.29.2-.19.3-.43.29-.71 0-.28-.1-.52-.29-.71A.97.97 0 0 0 12 7c-.28 0-.52.1-.71.29-.2.19-.29.43-.29.71 0 .28.1.52.29.71.2.2.43.3.71.29Zm0 13a10.11 10.11 0 0 1-9.21-6.1A9.76 9.76 0 0 1 2 12a10.12 10.12 0 0 1 6.1-9.21A9.74 9.74 0 0 1 12 2a10.08 10.08 0 0 1 9.21 6.1c.53 1.22.8 2.52.79 3.9a10.03 10.03 0 0 1-10 10Z" />
  </symbol>
  <symbol id="icon-mail" viewBox="0 0 20 16" stroke="none">
    <path
      d="M20 4v9.112a2.83 2.83 0 0 1-.817 1.981 3.05 3.05 0 0 1-2.007.902L17 16H3a3.064 3.064 0 0 1-2.058-.787 2.844 2.844 0 0 1-.937-1.932L0 13.111V4l9.445 6.062.116.064a1.032 1.032 0 0 0 .878 0l.116-.064L20 4Z" />
    <path d="M16.46 0c1.073 0 2.015.585 2.54 1.464L9.5 8 0 1.464C.25 1.046.592.696.999.443A2.918 2.918 0 0 1 2.34.007L2.54 0h13.92Z" />
  </symbol>
  <symbol id="icon-message" viewBox="0 0 24 24" stroke="none">
    <path
      d="M19.07 4.93a10 10 0 0 0-16.28 11c.1.2.13.42.09.64L2 20.8A1 1 0 0 0 3 22h.2l4.28-.86c.22-.03.44 0 .64.09a10 10 0 0 0 11-16.28l-.05-.02ZM8 13a1 1 0 1 1 0-2 1 1 0 0 1 0 2Zm4 0a1 1 0 1 1 0-2 1 1 0 0 1 0 2Zm4 0a1 1 0 1 1 0-2 1 1 0 0 1 0 2Z" />
  </symbol>
  <symbol id="icon-new-tab" viewBox="0 0 14 14" stroke="none">
    <path d="M13.457 1.49a.687.687 0 0 0-.686-.687H6.59a.687.687 0 0 0 0 1.373h5.493V7.67a.687.687 0 1 0 1.373 0V1.49ZM.75 13.51l.486.486 12.02-12.02-.485-.486-.486-.486-12.02 12.02.485.486Z" />
  </symbol>
  <symbol id="icon-new-tab-2" viewBox="0 0 11 11" stroke="none">
    <path d="M10.464 1.08a.625.625 0 0 0-.625-.624H4.214a.625.625 0 0 0 0 1.25h5v5a.625.625 0 0 0 1.25 0V1.08ZM1 9.92l.442.441 8.839-8.838-.442-.442-.442-.442L.558 9.477 1 9.92Z" />
  </symbol>
  <symbol id="icon-percent-fill" viewBox="0 0 24 24" stroke="none">
    <path
      d="M12 2a3.2 3.2 0 0 1 2.267.942l.698.698a1.2 1.2 0 0 0 .846.35h1a3.2 3.2 0 0 1 3.2 3.2v1c0 .316.126.62.347.843l.698.698a3.2 3.2 0 0 1 .002 4.537l-.698.698a1.2 1.2 0 0 0-.349.845v1a3.2 3.2 0 0 1-3.2 3.2h-1a1.2 1.2 0 0 0-.844.347l-.698.698a3.2 3.2 0 0 1-4.536.002l-.698-.698a1.2 1.2 0 0 0-.846-.349h-1a3.2 3.2 0 0 1-3.2-3.2v-1a1.2 1.2 0 0 0-.347-.843l-.698-.698a3.2 3.2 0 0 1-.002-4.537l.698-.698a1.2 1.2 0 0 0 .349-.845v-1l.005-.182a3.2 3.2 0 0 1 3.195-3.019h1a1.2 1.2 0 0 0 .844-.347l.698-.698A3.2 3.2 0 0 1 12 2Zm2.49 10.99a1.5 1.5 0 1 0 0 3 1.5 1.5 0 0 0 0-3Zm1.207-4.707a1 1 0 0 0-1.414 0l-6 6a1 1 0 0 0 1.414 1.415l6-6.001a1 1 0 0 0 0-1.414ZM9.49 7.99a1.5 1.5 0 1 0 0 3 1.5 1.5 0 0 0 0-3Z" />
  </symbol>
  <symbol id="icon-person" viewBox="0 0 30 30" stroke="none">
    <path
      d="M15 15c-1.375 0-2.552-.49-3.531-1.469C10.489 12.552 10 11.375 10 10s.49-2.552 1.469-3.531C12.448 5.489 13.625 5 15 5s2.552.49 3.531 1.469C19.511 7.448 20 8.625 20 10s-.49 2.552-1.469 3.531C17.552 14.511 16.375 15 15 15ZM5 22.5v-1c0-.708.183-1.36.548-1.953A3.662 3.662 0 0 1 7 18.188a18.535 18.535 0 0 1 3.938-1.452 17.262 17.262 0 0 1 8.124 0c1.334.324 2.646.808 3.938 1.453a3.648 3.648 0 0 1 1.454 1.36c.365.594.547 1.245.546 1.952v1a2.41 2.41 0 0 1-.734 1.766c-.489.49-1.078.735-1.766.734h-15a2.407 2.407 0 0 1-1.765-.734A2.412 2.412 0 0 1 5 22.5Z" />
  </symbol>
  <symbol id="icon-phone" viewBox="0 0 24 24" stroke="none">
    <path
      d="M5 9.86a18.47 18.47 0 0 0 9.57 9.3l.68.3a3.5 3.5 0 0 0 4.33-1.25l.89-1.33a1 1 0 0 0-.2-1.33l-3.02-2.43a1 1 0 0 0-1.43.18l-.93 1.26a12.14 12.14 0 0 1-5.51-5.51l1.25-.93a1 1 0 0 0 .19-1.43L8.39 3.67a1 1 0 0 0-1.34-.2l-1.33.9a3.5 3.5 0 0 0-1.24 4.35L5 9.86Z" />
  </symbol>
  <symbol id="icon-pin" viewBox="0 0 18 18" stroke="none">
    <path
      d="M7.53 16.93c.48.38.97.73 1.47 1.07a20.97 20.97 0 0 0 3.69-3.14C14.27 13.15 16 10.67 16 7.9a6.8 6.8 0 0 0-2.05-4.87A7 7 0 0 0 9 1a7.1 7.1 0 0 0-4.95 2.02A6.88 6.88 0 0 0 2 7.89c0 2.78 1.73 5.26 3.31 6.97.7.74 1.44 1.43 2.22 2.07ZM9 10.37c-.67 0-1.31-.26-1.79-.72a2.47 2.47 0 0 1 0-3.52 2.55 2.55 0 0 1 3.58 0 2.47 2.47 0 0 1 0 3.52c-.48.46-1.12.72-1.79.72Z" />
  </symbol>
  <symbol id="icon-play" viewBox="0 0 18 22" stroke="none">
    <path d="M18 11 0 21.4V.6L18 11Z" />
  </symbol>
  <symbol id="icon-ruble" viewBox="0 0 24 24" stroke="none">
    <path d="M13.5 11.25h-2.75V7.96a.25.25 0 0 1 .2-.2H11l.2-.01h2.3a1.75 1.75 0 0 1 0 3.5Z" />
    <path fill-rule="evenodd" clip-rule="evenodd"
      d="M22 12a10 10 0 1 1-20 0 10 10 0 0 1 20 0ZM8.25 14a.75.75 0 0 1 .75-.75h.25v-.5H9a.75.75 0 1 1 0-1.5h.25V8.16c0-.14 0-.3.02-.43a1.75 1.75 0 0 1 1.46-1.46c.13-.02.29-.02.43-.02h2.34a3.25 3.25 0 1 1 0 6.5h-2.75v.5H12a.75.75 0 1 1 0 1.5h-1.25V17a.75.75 0 1 1-1.5 0v-2.25H9a.75.75 0 0 1-.75-.75Z" />
  </symbol>
  <symbol id="icon-settings" viewBox="0 0 24 24" stroke="none">
    <path fill-rule="evenodd" clip-rule="evenodd"
      d="M14.28 2.15C13.9 2 13.44 2 12.5 2c-.94 0-1.4 0-1.78.15a2 2 0 0 0-1.09 1.08c-.1.23-.13.49-.14.87a1.62 1.62 0 0 1-.8 1.35 1.64 1.64 0 0 1-1.58 0 2.49 2.49 0 0 0-.82-.3 2.03 2.03 0 0 0-1.5.4c-.31.24-.55.64-1.02 1.45-.47.8-.7 1.21-.75 1.6-.07.53.07 1.06.4 1.48.15.2.35.36.68.56.47.3.78.8.78 1.36s-.3 1.06-.78 1.36c-.33.2-.53.36-.68.56a2 2 0 0 0-.4 1.47c.05.4.28.8.75 1.61.47.8.7 1.21 1.03 1.45.42.33.96.47 1.49.4.24-.03.48-.13.82-.3a1.64 1.64 0 0 1 1.58 0c.49.28.78.8.8 1.35.01.38.05.64.14.87a2 2 0 0 0 1.1 1.08c.36.15.83.15 1.77.15.94 0 1.4 0 1.78-.15a2 2 0 0 0 1.09-1.09c.1-.22.13-.48.14-.86.02-.56.31-1.07.8-1.35a1.64 1.64 0 0 1 1.58 0c.34.17.58.27.82.3.53.07 1.07-.07 1.5-.4.31-.24.55-.64 1.02-1.45.47-.8.7-1.21.75-1.6a2 2 0 0 0-.4-1.48c-.14-.2-.35-.36-.68-.56-.47-.3-.78-.8-.78-1.36s.3-1.06.78-1.36c.33-.2.54-.36.68-.56a2 2 0 0 0 .4-1.47c-.05-.4-.28-.8-.75-1.61-.47-.8-.7-1.21-1.03-1.45a2.03 2.03 0 0 0-1.49-.4c-.24.03-.48.13-.82.3a1.64 1.64 0 0 1-1.58 0 1.62 1.62 0 0 1-.8-1.35 2.44 2.44 0 0 0-.14-.86 2 2 0 0 0-1.1-1.09ZM12.5 15a3.01 3.01 0 0 0 3.02-3c0-1.66-1.35-3-3.02-3a3.01 3.01 0 0 0-3.02 3c0 1.66 1.35 3 3.02 3Z" />
  </symbol>
  <symbol id="icon-size" viewBox="0 0 30 30" stroke="none">
    <path
      d="M3 8.438A3.437 3.437 0 0 1 6.438 5h18.125A3.438 3.438 0 0 1 28 8.438v13.124A3.437 3.437 0 0 1 24.562 25H6.438A3.437 3.437 0 0 1 3 21.562V8.438Zm18.475.587a.937.937 0 0 0-.663-.275h-3.125a.937.937 0 0 0 0 1.875h.863l-2.15 2.149a.938.938 0 1 0 1.325 1.325l2.15-2.149v.863a.938.938 0 0 0 1.875 0V9.687c0-.248-.1-.486-.275-.662ZM10.187 21.25h3.127a.938.938 0 0 0 0-1.875h-.863l2.15-2.15a.938.938 0 0 0-1.326-1.325l-2.15 2.147v-.862a.938.938 0 0 0-1.875 0v3.125a.937.937 0 0 0 .938.938" />
  </symbol>
  <symbol id="icon-telegram" viewBox="0 0 20 18" stroke="none">
    <path fill-rule="evenodd" clip-rule="evenodd"
      d="M17.93.24a1.5 1.5 0 0 1 1.97.83c.1.25.12.52.08.78l-2.26 13.62a1.97 1.97 0 0 1-2.88 1.41 58.2 58.2 0 0 1-3.87-2.27c-.67-.44-2.75-1.85-2.5-2.85.23-.86 3.71-4.09 5.7-6 .78-.76.43-1.2-.5-.5C11.38 6.98 7.7 9.6 6.5 10.34c-1.07.64-1.63.76-2.3.64a15.3 15.3 0 0 1-3.28-.9c-1.24-.5-1.18-2.21 0-2.71L17.93.24Z" />
  </symbol>
  <symbol id="icon-truck" viewBox="0 0 30 30" stroke="none">
    <path
      d="m28.1 13.11-2.68-4.38a2.2 2.2 0 0 0-1.88-1.04h-2.11v-.3a3.33 3.33 0 0 0-1.01-2.4A3.48 3.48 0 0 0 17.98 4H5.45a3.47 3.47 0 0 0-3.2 2.08c-.17.42-.25.86-.25 1.3v11.07c0 .52.2 1.02.54 1.4.35.4.83.65 1.35.72v.34a3.84 3.84 0 0 0 1.2 2.81 4.07 4.07 0 0 0 5.75.05 4 4 0 0 0 1.2-3.12h6.92v.3a3.84 3.84 0 0 0 1.19 2.82 4.07 4.07 0 0 0 5.76.05 4 4 0 0 0 1.2-3.12h.95c.25 0 .48-.1.66-.28.17-.17.28-.4.28-.65v-3.55c0-1.1-.31-2.17-.9-3.11Zm-17.95 7.8a2.07 2.07 0 0 1-.65 1.5 2.27 2.27 0 0 1-3.1 0 2.13 2.13 0 0 1-.46-2.36c.16-.4.45-.72.81-.94.37-.24.8-.37 1.25-.36.43 0 .84.13 1.2.36a2.13 2.13 0 0 1 1 1.78l-.05.02Zm4.07-6.15H7.96c-.34 0-.65-.13-.89-.36a1.23 1.23 0 0 1-.27-1.34 1.23 1.23 0 0 1 .67-.67c.16-.06.32-.1.48-.1h6.27c.33 0 .65.14.89.37a1.22 1.22 0 0 1 .27 1.34 1.23 1.23 0 0 1-.68.67c-.15.06-.31.09-.48.09Zm0-4.23H7.96c-.34 0-.65-.13-.89-.36a1.23 1.23 0 0 1-.27-1.34 1.23 1.23 0 0 1 .67-.67c.16-.06.32-.09.48-.09h6.27c.33 0 .65.13.89.36a1.22 1.22 0 0 1 .27 1.34 1.23 1.23 0 0 1-.68.67c-.15.06-.31.09-.48.09ZM25.2 20.9a2.07 2.07 0 0 1-.65 1.5 2.27 2.27 0 0 1-3.1 0 2.13 2.13 0 0 1-.64-1.52 2 2 0 0 1 .42-1.24c.3-.4.75-.7 1.25-.81h.31a.38.38 0 0 1 .18 0h.25c.38.04.74.18 1.05.4.31.23.55.53.7.88a2 2 0 0 1 .2.85l.03-.06Z" />
    <path d="M22.18 19.01a.37.37 0 0 0-.18 0h.18Z" />
  </symbol>
  <symbol id="icon-whatsapp" viewBox="0 0 20 20" stroke="none">
    <path
      d="M17.085 2.91A9.871 9.871 0 0 0 13.857.75 9.913 9.913 0 0 0 10.04 0C4.553 0 .08 4.45.08 9.91a9.9 9.9 0 0 0 1.327 4.95L0 20l5.276-1.38c1.458.79 3.096 1.21 4.764 1.21 5.488 0 9.96-4.45 9.96-9.91 0-2.65-1.035-5.14-2.915-7.01ZM10.04 18.15c-1.487 0-2.945-.4-4.22-1.15l-.302-.18-3.136.82.834-3.04-.2-.31a8.23 8.23 0 0 1-1.267-4.38c0-4.54 3.718-8.24 8.281-8.24 2.211 0 4.292.86 5.85 2.42a8.144 8.144 0 0 1 2.422 5.83c.02 4.54-3.699 8.23-8.262 8.23Zm4.543-6.16c-.251-.12-1.478-.72-1.699-.81-.23-.08-.392-.12-.562.12-.171.25-.644.81-.784.97-.141.17-.292.19-.543.06-.251-.12-1.055-.39-2-1.23-.744-.66-1.236-1.47-1.387-1.72-.14-.25-.02-.38.11-.51.111-.11.252-.29.372-.43.121-.14.171-.25.252-.41.08-.17.04-.31-.02-.43s-.563-1.34-.764-1.84c-.201-.48-.412-.42-.563-.43h-.482c-.171 0-.433.06-.664.31-.22.25-.864.85-.864 2.07 0 1.22.894 2.4 1.015 2.56.12.17 1.759 2.67 4.251 3.74a12.2 12.2 0 0 0 1.417.52c.593.19 1.136.16 1.568.1.483-.07 1.478-.6 1.679-1.18.21-.58.21-1.07.14-1.18-.07-.11-.22-.16-.472-.28Z" />
  </symbol>
  <symbol id="icon-window" viewBox="0 0 30 30" stroke="none">
    <path
      d="M13.75 13.75v-10h-7.5a2.5 2.5 0 0 0-2.5 2.5v7.5h10Zm2.5 0h10v-7.5a2.5 2.5 0 0 0-2.5-2.5h-7.5v10Zm-2.5 2.5h-10v7.5a2.5 2.5 0 0 0 2.5 2.5h7.5v-10Zm2.5 0v10h7.5a2.5 2.5 0 0 0 2.5-2.5v-7.5h-10Z" />
  </symbol>
</svg>
